<?xml version="1.0" encoding="utf-8"?><svg xmlns="http://www.w3.org/2000/svg" xmlns:xlink="http://www.w3.org/1999/xlink"><symbol viewBox="0 0 42.75 42.76" id="arrow-next" xmlns="http://www.w3.org/2000/svg"><defs><style>.acls-1{fill:#fff}</style></defs><g id="aСлой_2" data-name="Слой 2"><g id="aLayer_1" data-name="Layer 1"><path class="acls-1" d="M21.38 0A21.38 21.38 0 1 1 0 21.38 21.4 21.4 0 0 1 21.38 0zm0 40.51A19.13 19.13 0 1 0 2.25 21.38a19.15 19.15 0 0 0 19.13 19.13z"/><path class="acls-1" d="M24.35 21.38l-1.28-1.28-3.39-3.39-1.27 1.28 3.38 3.39-3.38 3.38 1.27 1.28 3.39-3.38 1.28-1.28z"/></g></g></symbol><symbol viewBox="0 0 42.75 42.76" id="arrow-prev" xmlns="http://www.w3.org/2000/svg"><defs><style>.bcls-1{fill:#fff}</style></defs><g id="bСлой_2" data-name="Слой 2"><g id="bLayer_1" data-name="Layer 1"><path class="bcls-1" d="M21.38 42.76a21.38 21.38 0 1 1 21.37-21.38 21.4 21.4 0 0 1-21.37 21.38zm0-40.51a19.13 19.13 0 1 0 19.13 19.13A19.15 19.15 0 0 0 21.38 2.25z"/><path class="bcls-1" d="M18.41 21.38l1.27 1.28 3.39 3.38 1.28-1.28-3.39-3.38 3.39-3.39-1.28-1.28-3.39 3.39-1.27 1.28z"/></g></g></symbol><symbol viewBox="0 0 344.96 344.96" id="check" xmlns="http://www.w3.org/2000/svg"><g data-name="Слой 2"><path d="M321.85 86.24l-40-23.11-23.1-40H212.5L172.48 0l-40 23.11H86.24l-23.11 40-40 23.1v46.21L0 172.48l23.11 40v46.21l40 23.11 23.11 40h46.21l40 23.1 40-23.11h46.21l23.11-40 40-23.11V212.5l23.11-40-23.11-40V86.24zM156.91 243.07a16.79 16.79 0 0 1-23.34 0l-50.45-50.44a16.19 16.19 0 0 1 0-22.89l13.35-13.35a16.19 16.19 0 0 1 22.89 0l25.87 25.87 80.34-80.35a16.19 16.19 0 0 1 22.89 0l13.35 13.35a16.19 16.19 0 0 1 0 22.89z" data-name="Capa 1"/></g></symbol><symbol viewBox="0 0 185 256" id="doctor" xmlns="http://www.w3.org/2000/svg"><g data-name="Слой 2"><g data-name="Layer 1"><path d="M115.47 0c7.54 1.65 15.17 3 22.59 5.07a78.61 78.61 0 0 1 15.7 6.18c9.84 5.28 16 12.67 17 24.92 2.12 24.12 5.82 48.11 8.83 72.16.16 1.29.59 3.2-.06 3.83-3.7 3.58-1.68 7.48-.86 11.19 1.49 6.76 3.06 13.52 5 20.16 4.11 13.84-1.85 26.8-14.86 32.51-1.91.83-3.6 3.18-4.45 5.22-7.4 17.65-15.3 35-27.43 50-9.29 11.55-20.12 20.68-35 23.94-.2 0-.31.5-.47.77h-18c-8.64-3.19-17.1-6.6-24.19-12.84-10.91-9.59-19.12-21.21-25.64-34-4.82-9.44-8.81-19.3-13.39-28.87a9.19 9.19 0 0 0-4.14-4.3c-14-6-19.56-21.17-14-35.32 2.94-7.44 6.54-16.39 4.89-23.49-3.58-15.33 1.76-29.39 2.71-44s3.3-29.26 5.59-43.85C16.72 20 24.15 15.17 31.62 11c9.86-5.49 20.72-7.94 31.8-9.53 2-.3 4-1 6-1.48zM26 141h-5.12c-6.38.09-9.1 2.53-9.82 8.8-1 8.54 3.44 14.95 12 16.7a6.28 6.28 0 0 1 5.22 4.41c3.17 7.87 6.45 15.7 10 23.4 6.41 14 14.08 27.22 25.27 38 9.9 9.53 21.41 15.21 35.63 12.44 11.69-2.28 20.34-9.45 27.76-18.24 12.84-15.21 20.8-33.15 28.1-51.4 1.89-4.72 3.55-8.45 9.72-9.52 6.89-1.2 10.25-8.85 9-16.76-1-6.34-3-7.61-12-7.83a26.74 26.74 0 0 1-2.76-.37c0-7.83.15-15.48-.13-23.11-.05-1.48-1.64-4.07-2.74-4.19-21.58-2.43-43.2-6.22-64.82-6.31-20.27-.08-40.56 3.91-60.86 5.91-3.77.37-4.61 2-4.51 5.47.18 7.28.06 14.6.06 22.6zm-9-36.63c50.8-11.33 100.66-11 151-.15-3.16-25.29-6.07-49-9.19-72.68-.23-1.76-1.75-3.55-3.08-4.94-5.85-6.09-13.47-9-21.39-11.11-21-5.66-42.33-5.66-63.72-3.67-13.31 1.25-26.35 3.82-37.72 11.53-4.31 2.93-7 6.64-7.49 12.21-.84 9.92-2.28 19.8-3.52 29.69-1.56 12.48-3.17 24.95-4.97 39.12z"/><path d="M87 81.79V61.62H66.66V51H87V30.85h10.9v20.07h20.27V61.5H98.05v20.29z"/></g></g></symbol><symbol viewBox="0 0 322.07 430.3" id="footer-i-1" xmlns="http://www.w3.org/2000/svg"><g data-name="Слой 2"><g data-name="Layer 1"><path d="M281.93 220.81h-14.5V33.39c0-13.08-5.36-18.58-18.46-18.59q-75.24-.08-150.49-.06h-5.14v78.34H44.63V78.87h33.43V14.68c-1.67 1.26-3 2.12-4.13 3.13C55.43 33.87 37 50 18.42 66a9.12 9.12 0 0 0-3.51 7.68q.09 130.7.09 261.45C15 347 20.86 353 32.78 353.07c28.67.11 57.33.06 86 .07h6.15v14.75H96.68c-20.51 0-41-.52-61.5.14S-.12 351 0 332.82C.59 244 .23 155.16.37 66.33a10 10 0 0 1 3-6.68q32.66-28.72 65.69-57A11 11 0 0 1 75.72.13q87-.21 174-.07c17.8 0 32.37 14.06 32.4 31.25q.19 93.24.05 186.49c-.01.82-.17 1.64-.24 3.01z"/><path d="M186.61 400.05l18.1-35.86c-8.35-5.64-16.9-10.24-24.05-16.46-20.62-18-28.43-46.6-19.27-71.3 10.27-27.7 30.16-44.62 59.94-47.25 51.42-4.54 89.13 49.65 67.76 96.41a9.6 9.6 0 0 0 .11 7.24c10.21 20.94 20.67 41.75 31.15 62.56 1.87 3.71 2.85 7.21-.45 10.52-3.12 3.12-6.56 2.3-10.14.67-8.31-3.78-16.69-7.42-25.61-11.37-2.09 8.27-4.07 16.12-6 24-.4 1.62-.3 3.6-1.23 4.79-1.79 2.29-3.82 5-6.35 6-3.22 1.25-6-.86-7.66-4l-15.49-30.77c-4.34-8.62-8.78-17.19-12.94-25.9-1.2-2.51-2.74-2.9-5.32-3.29-6.89-1-10.19 1.94-13.05 8-7.92 16.86-16.61 33.36-24.9 50.05-1.83 3.67-3.9 6.63-8.6 6.15s-6-4-7-7.92c-2.14-8.84-4.32-17.67-6.61-27-8.82 3.88-17 7.42-25.2 11.14-3.7 1.68-7.28 2.92-10.57-.45s-2.19-7.22-.26-11c7.24-14.22 14.38-28.48 21.77-43.16l13.15 6.45-13.55 27.19c6.09-2.66 10.73-4.73 15.41-6.71 6.37-2.68 11 0 12.32 6.89.94 4.8 2.19 9.54 3.31 14.3zm93.91-102.59c0-30.81-23.41-54.31-54-54.16-30.82.15-54.05 23.39-54.15 54.18s23.34 54 54.19 54 53.94-22.99 53.96-54.02zm16.82 87.43l.82-.87-19.92-39.72-29.92 19.81 18.28 36.3c.77-.87 1.1-1.08 1.17-1.36 1.19-4.5 2.37-9 3.49-13.52 2-8.08 5.89-9.88 13.56-6.31 4.18 1.94 8.35 3.78 12.52 5.67zM141.17 164.92h-68c-5.07-.31-8.12-3.29-7.93-7.72.18-4.26 3.09-6.94 8.06-7 13.33-.09 26.67 0 40 0q47.25 0 94.49.08a13.65 13.65 0 0 1 5.78 1c3.28 1.58 4.23 4.68 3.41 8.05-1 4.23-4.25 5.65-8.31 5.65h-52zm0 38.97h-65.5c-1 0-2 .05-3 0-4.69-.4-7.6-3.44-7.42-7.7.18-4.1 3-6.89 7.56-6.93 13.66-.12 27.33-.07 41-.07q47 0 94 .07a13.81 13.81 0 0 1 5.78 1c3.28 1.58 4.22 4.69 3.4 8.06-1 4.23-4.24 5.64-8.31 5.63h-67.5zM113.2 242.9c-13.16 0-26.32.23-39.46-.2-2.67-.08-5.91-2.1-7.64-4.24-1.1-1.36-.7-5.18.5-6.8a9.44 9.44 0 0 1 6.63-3.32c26.64-.22 53.28-.17 79.92-.11 4.68 0 7.83 3.1 7.83 7.24 0 4.3-3.25 7.36-8.32 7.39-13.15.14-26.31.04-39.46.04zm-9.56 24.31h29.44c5.23 0 8.21 2.75 8.22 7.25s-3 7.39-8.18 7.41q-29.94.11-59.88 0c-5.11 0-8.11-3.11-8-7.59.11-4.28 3-7 7.94-7.05 10.16-.08 20.31-.02 30.46-.02z"/><path d="M192.34 297.22c0-17.58 16.49-34 34.08-33.92 18 0 34.39 16.37 34.39 34.21s-16.81 34.41-34.43 34.26c-17.91-.16-34.08-16.57-34.04-34.55zm14.74.6c.07 11.33 7.83 19.1 19.16 19.16 11.92.07 19.72-7.65 19.78-19.59.06-11.5-7.87-19.38-19.46-19.35-11.98.04-19.56 7.74-19.48 19.78z"/></g></g></symbol><symbol viewBox="0 0 655.35 813.45" id="footer-i-2" xmlns="http://www.w3.org/2000/svg"><g data-name="Слой 2"><g data-name="Layer 1"><path d="M1.47 288.48c0-52.94.13-105.87-.16-158.81 0-6.88 2.12-9.94 8.57-12.34 103.49-38.59 206.86-77.52 310.39-116a25.2 25.2 0 0 1 16.21.06C439.71 39.76 542.78 78.6 646 117.07c6.58 2.46 9.4 5.22 9.37 12.72-.29 93.12.06 186.24-.32 279.35-.23 57.49-8.21 113.66-31.39 167-28.33 65.03-75.58 113.46-133.48 152.56-49.28 33.3-102.44 59.38-156.62 83.49-2.59 1.16-6.45 1.79-8.85.71-71.57-32.25-142.08-66.4-202.44-117.9C50.94 634.17 12.11 556.12 5.15 463.39.79 405.3 1.54 346.82 0 288.52zm612.09 11.32h.44c0-47.52-.14-95 .16-142.55 0-6.56-2.1-9.26-8.16-11.52-89.82-33.45-179.46-67.29-269.29-100.62a26.82 26.82 0 0 0-17.14.12c-88.95 33-177.7 66.48-266.62 99.52-7.69 2.85-10.6 6.19-10.53 14.79.45 59 0 118 .33 177C43 376.69 42.41 417 45.24 457c6.14 86.62 42.38 158.41 110.7 213.21 51.14 41 109.07 70.34 168.15 97.64 2.62 1.2 7 .82 9.63-.56 39.79-20.76 80.12-40.61 118.89-63.15a348.26 348.26 0 0 0 95.18-80.56c45.65-55.79 63.43-121.3 65.52-191.73 1.31-44 .25-88.04.25-132.05z"/><path d="M516.65 248.64l28.47 28.46-277.6 277.6C216.42 503.57 164.24 451.38 112 399.11L139.37 373l126.41 126.54z"/></g></g></symbol><symbol viewBox="0 0 833.6 693.79" id="footer-i-3" xmlns="http://www.w3.org/2000/svg"><g data-name="Слой 2"><path d="M441.54 687.29a66.83 66.83 0 0 1-24.48-4.9c-23.72-9.31-37.3-27.76-39.28-53.37-.66-8.51-.58-17.1-.51-25.41 0-3.74.07-7.6 0-11.39-3.14 2.94-6 5.62-8.79 8.4q-16.71 16.5-33.39 33.06-16.87 16.74-33.76 33.43c-20.06 19.81-43.93 25.16-69 15.49-24.93-9.61-38.76-29-40-56.13-.46-10.09-.35-20.28-.24-31.06v-3.52l-.09.11c-8.29 8.21-16.68 16.6-24.8 24.71-17 17-34.59 34.56-52.25 51.51-16.74 16.09-39.65 22.37-61.3 16.78a62.21 62.21 0 0 1-43.94-42.22C2 618 8.25 595.35 28.39 575.48Q81.73 522.85 135 470.16l54.44-53.79q4.68-4.61 9.32-9.26c7.48-7.47 15.22-15.19 23.1-22.57 20.14-18.76 43.88-23.12 68.77-12.54 24.59 10.4 37.71 30.3 37.95 57.52.08 9.73.06 19.54 0 29.93v2.42l.47-.46c6.41-6.2 12.47-12.06 18.37-17.88q16.17-16 32.28-32 12.52-12.43 25.05-24.84c19.85-19.65 44-24.94 70-15.31 23.94 8.9 39.11 31.86 39.59 59.92.15 8.61.12 17.35.08 25.83l88.1-91h-52c-49.88 0-101.45-.07-152.17.13H398c-29.45 0-50.13-12.67-61.46-37.66-11.4-25.15-6.76-49.49 13.42-70.39 21.16-21.91 43.15-43.69 64.41-64.75q8.16-8.09 16.32-16.19c21.3-21.16 43.05-42.57 64.08-63.29l19.31-19c1.22-1.2 2.49-2.26 3.71-3.28.53-.44 1.07-.89 1.61-1.36l5.44-4.69 3.1 6.35c7.94 16.5 14.34 18.71 22.71 16.95 6.72-1.42 12.45-8.23 12.78-15.19.38-7.87-2.4-14.13-17.18-19l-8.36-2.78L602.08 6.5H609l1.65 2.05c2.47 3.07 5.11 6.16 7.66 9.15 5.69 6.7 11.62 13.63 16.52 21.3 13.86 21.55 19.9 44.63 17.44 66.77s-13.35 43.46-31.54 61.87c-19.24 19.47-39 39-58.18 57.9l-13.81 13.62c-.24.25-.49.49-.74.72h57.38c47.86 0 97.37 0 146.06.23a115.17 115.17 0 0 1 32.56 4.55A61.12 61.12 0 0 1 809.42 346C736.93 418.35 663 491.74 591.52 562.71q-42.91 42.6-85.82 85.22c-2.41 2.39-4.79 4.81-7.18 7.23-4.47 4.54-9.1 9.24-13.85 13.71-12.99 12.23-27.61 18.42-43.13 18.42zm-54.69-119.17l.75 11.69c.11 1.65.22 3.09.32 4.39.19 2.65.35 4.74.38 6.94.05 4.21 0 8.46 0 12.57-.07 8.08-.15 16.43.47 24.46 1.66 21.41 12.54 36.21 32.34 44 20.63 8.11 39.49 4.31 56.05-11.28 4.6-4.34 9.16-9 13.56-13.43 2.41-2.45 4.82-4.9 7.26-7.32l85.82-85.22c71.48-71 145.4-144.34 217.88-216.72a50.12 50.12 0 0 0-20.9-83 104.32 104.32 0 0 0-29.37-4.13c-48.66-.27-98.14-.25-146-.23H548.6c-2.64 0-5.24-.16-7.76-.31l-3.4-.18-3.51-.17-4.09-10 3.25-2.57c.94-.73 1.9-1.45 2.86-2.16a46 46 0 0 0 5.09-4.13l13.81-13.63c19.12-18.87 38.89-38.38 58.08-57.8 33.35-33.75 38-75.65 12.68-115-4.5-7-9.92-13.35-15.65-20.08-1.6-1.86-3.22-3.77-4.83-5.7l-47.45 48.36c9 4.41 17.44 12 16.74 26.82-.57 12-9.81 23-21.5 25.43-16.08 3.39-25.19-5.55-31.57-16.59l-18.87 18.6c-21 20.7-42.76 42.11-64.05 63.26q-8.16 8.1-16.33 16.19c-21.22 21-43.16 42.75-64.23 64.58C340.84 283.39 337 303 346.55 324s26.35 31.17 51.45 31.17h.37c50.74-.2 102.33-.16 152.22-.13h62.6l3.18-3.29 26.59 14.29h-25.13l-114.45 118.3v-25.95c0-8.84.08-18-.08-26.92-.41-23.78-12.53-42.4-32.43-49.8-21.91-8.14-41.55-3.83-58.38 12.82q-12.54 12.39-25 24.82-16.14 16-32.3 32c-5.94 5.86-12 11.74-18.45 18l-9.81 9.49-9.33 9.06v-58.25c-.2-22.83-10.71-38.8-31.24-47.49-20.88-8.84-40-5.31-56.93 10.49-7.75 7.25-15.42 14.91-22.84 22.32q-4.66 4.65-9.36 9.3L142.77 478Q89.45 530.66 36.11 583.31c-17.2 17-22.41 35.36-15.9 56.19 5.51 17.67 18.7 30.37 36.18 34.87 17.93 4.61 37-.65 50.94-14.07 17.58-16.88 35.13-34.41 52.1-51.37 8.12-8.11 16.52-16.51 24.83-24.73 1.64-1.63 3.37-3.18 5.56-5.14 1.19-1.07 2.56-2.29 4.18-3.77l9.2-8.38v12.45c0 5.66 0 11-.11 16.17-.11 10.62-.22 20.65.23 30.43 1 22.74 12.14 38.34 33 46.37 21.06 8.12 40.35 3.73 57.34-13q16.89-16.69 33.74-33.42 16.69-16.54 33.42-33.08c3.57-3.54 7.31-7 11.26-10.73 2-1.85 4.06-3.8 6.28-5.89z" stroke-miterlimit="10" stroke-width="13" data-name="Layer 1"/></g></symbol><symbol viewBox="0 0 512 512" id="footer-i-4" xmlns="http://www.w3.org/2000/svg"><g data-name="Слой 2"><g data-name="Слой 1"><path d="M501 512H11a18.44 18.44 0 0 1-11-11V196c3.29-3.63 6.14-7.83 9.94-10.79Q46.8 156.54 84 128.39a8.2 8.2 0 0 0 3.69-7.48c-.21-10.82-.12-21.64-.06-32.46.06-11.64 5.09-16.65 16.8-16.69 16.32-.05 32.64.1 49-.13a14 14 0 0 0 7.63-2.63c9.27-6.78 18.24-14 27.39-20.9Q220.19 24 252 0h8c2.7 1.85 5.49 3.59 8.09 5.58 27.48 21.06 54.91 42.21 82.45 63.15a15.44 15.44 0 0 0 8.53 2.89c16.31.27 32.63.08 48.95.15 11.07 0 16.22 5.18 16.3 16.18s.15 22-.05 33a8.19 8.19 0 0 0 3.69 7.47q37.17 28.26 74.1 56.82c3.8 3 6.65 7.16 9.94 10.79V501a18.54 18.54 0 0 1-11 11zM116.2 100.15c-.08 1.42-.19 2.39-.19 3.36 0 51-.05 102 .15 153 0 2.12 1.82 4.88 3.62 6.26q66.06 51 132.26 101.8c3.11 2.4 5 2.27 8-.05q66.09-51 132.39-101.64a8.28 8.28 0 0 0 3.68-7.44q-.17-75-.07-150v-5.28zm92.12 266.58L56.6 483.18h399L303.86 366.72c-12.48 9.6-24.48 18.85-36.49 28.08-8.63 6.62-13.87 6.63-22.37.1zm275-137.91l-156.29 120c52.21 40.07 103.88 79.73 156.29 119.94zM185 348.78L28.76 228.91v239.74zM306.69 71.61a22.41 22.41 0 0 0-1.92-2c-15.31-11.77-30.67-23.48-45.91-35.34-2.39-1.86-3.92-1.36-6 .29-15 11.62-30.1 23.14-45.14 34.71a18.53 18.53 0 0 0-2.08 2.39zM424.68 238l49.67-38.18-49.67-38.18zM87.44 161.56l-49.81 38.18L87.44 238z"/><path d="M255.5 171.12h-82c-5.9 0-10.35-2.42-13.07-7.58a13.46 13.46 0 0 1 .66-14.25c2.84-4.4 7-6.42 12.26-6.42h163.94c9.78 0 15.86 5.49 15.89 14.05 0 8.28-5.91 14.12-14.74 14.16-21.16.07-42.31 0-63.47 0zM256 238h-82c-9 0-15.23-6-15.17-14.33a13.61 13.61 0 0 1 12.48-13.78 58.31 58.31 0 0 1 6.48-.26h156.49c2 0 4 0 6 .2 7.87.76 13.08 6.58 12.94 14.38a14 14 0 0 1-13.73 13.74c-8.16.24-16.33.07-24.49.07zm.06 66.74c-14.32 0-28.63.12-42.94 0-9.42-.1-15.55-6.18-15.31-14.72a13.57 13.57 0 0 1 10.83-13.19 24.81 24.81 0 0 1 5.43-.59q42-.06 83.89 0c9.05 0 15 4.44 16.14 11.75 1.48 9.31-4.94 16.63-15.1 16.75-14.31.13-28.63 0-42.94 0z"/></g></g></symbol><symbol viewBox="0 0 38.49 95.1" id="people" xmlns="http://www.w3.org/2000/svg"><g data-name="Слой 2"><path d="M38.44 54l-2.2-18.2a14 14 0 0 0-7.9-10.9 14.11 14.11 0 1 0-23.2-10.7 14.38 14.38 0 0 0 5 10.8 14 14 0 0 0-7.9 10.9L0 53.7a6.21 6.21 0 0 0 1.6 5 6.39 6.39 0 0 0 4.8 2.2h.8l1.5 28.4a6.13 6.13 0 0 0 6.1 5.8h8.8a6.07 6.07 0 0 0 6.1-5.8l1.5-28.5h1.1a6.22 6.22 0 0 0 4.6-2.1 5.74 5.74 0 0 0 1.54-4.7zM19.24 4.7a9.5 9.5 0 1 1-9.5 9.5 9.56 9.56 0 0 1 9.5-9.5zm14.2 51a1.5 1.5 0 0 1-1.2.5h-3.3a2.38 2.38 0 0 0-2.3 2.2L25 89a1.54 1.54 0 0 1-1.5 1.5h-8.8a1.47 1.47 0 0 1-1.5-1.5l-1.6-30.6a2.38 2.38 0 0 0-2.3-2.2h-3a1.76 1.76 0 0 1-1.3-.6 1.68 1.68 0 0 1-.4-1.4l2.2-17.8a9.28 9.28 0 0 1 9.2-8.1h6.5a9.28 9.28 0 0 1 9.2 8.1l2.2 18.1a1.68 1.68 0 0 1-.46 1.2z" data-name="Layer 1"/></g></symbol><symbol viewBox="0 0 18.74 17.72" id="search" xmlns="http://www.w3.org/2000/svg"><defs><style>.jcls-1{fill:#fff}</style></defs><g id="jСлой_2" data-name="Слой 2"><g id="jLayer_1" data-name="Layer 1"><path class="jcls-1" d="M8.86 17.72a8.86 8.86 0 1 1 8.86-8.86 8.87 8.87 0 0 1-8.86 8.86zm0-15.46a6.6 6.6 0 1 0 6.6 6.6 6.61 6.61 0 0 0-6.6-6.6z"/><path class="jcls-1" d="M18.35 15.42L15 12.1v2.29h-1.5l2.94 2.94a1.36 1.36 0 0 0 1.91 0 1.35 1.35 0 0 0 0-1.91z"/></g></g></symbol></svg>