<svg xmlns="http://www.w3.org/2000/svg" viewBox="0 0 185 256"><title>doctor</title><g id="Слой_2" data-name="Слой 2"><g id="Layer_1" data-name="Layer 1"><path d="M115.47,0c7.54,1.65,15.17,3,22.59,5.07a78.61,78.61,0,0,1,15.7,6.18c9.84,5.28,16,12.67,17,24.92,2.12,24.12,5.82,48.11,8.83,72.16.16,1.29.59,3.2-.06,3.83-3.7,3.58-1.68,7.48-.86,11.19,1.49,6.76,3.06,13.52,5,20.16,4.11,13.84-1.85,26.8-14.86,32.51-1.91.83-3.6,3.18-4.45,5.22-7.4,17.65-15.3,35-27.43,50-9.29,11.55-20.12,20.68-35,23.94-.2,0-.31.5-.47.77h-18c-8.64-3.19-17.1-6.6-24.19-12.84-10.91-9.59-19.12-21.21-25.64-34-4.82-9.44-8.81-19.3-13.39-28.87a9.19,9.19,0,0,0-4.14-4.3c-14-6-19.56-21.17-14-35.32,2.94-7.44,6.54-16.39,4.89-23.49-3.58-15.33,1.76-29.39,2.71-44S13,43.87,15.29,29.28C16.72,20,24.15,15.17,31.62,11c9.86-5.49,20.72-7.94,31.8-9.53,2-.3,4-1,6-1.48ZM26,141c-2.16,0-3.64,0-5.12,0-6.38.09-9.1,2.53-9.82,8.8-1,8.54,3.44,14.95,12,16.7a6.28,6.28,0,0,1,5.22,4.41c3.17,7.87,6.45,15.7,10,23.4,6.41,14,14.08,27.22,25.27,38,9.9,9.53,21.41,15.21,35.63,12.44,11.69-2.28,20.34-9.45,27.76-18.24,12.84-15.21,20.8-33.15,28.1-51.4,1.89-4.72,3.55-8.45,9.72-9.52,6.89-1.2,10.25-8.85,9-16.76-1-6.34-3-7.61-12-7.83a26.74,26.74,0,0,1-2.76-.37c0-7.83.15-15.48-.13-23.11-.05-1.48-1.64-4.07-2.74-4.19-21.58-2.43-43.2-6.22-64.82-6.31-20.27-.08-40.56,3.91-60.86,5.91-3.77.37-4.61,2-4.51,5.47C26.12,125.68,26,133,26,141Zm-9-36.63c50.8-11.33,100.66-11,151-.15-3.16-25.29-6.07-49-9.19-72.68-.23-1.76-1.75-3.55-3.08-4.94-5.85-6.09-13.47-9-21.39-11.11-21-5.66-42.33-5.66-63.72-3.67C57.31,13.07,44.27,15.64,32.9,23.35c-4.31,2.93-7,6.64-7.49,12.21-.84,9.92-2.28,19.8-3.52,29.69C20.33,77.73,18.72,90.2,16.92,104.37Z"/><path d="M87,81.79V61.62H66.66V51H87V30.85h10.9V50.92h20.27V61.5H98.05V81.79Z"/></g></g></svg>