<svg xmlns="http://www.w3.org/2000/svg" viewBox="0 0 833.6 693.79"><defs><style>.cls-1{stroke:#1d1d1b;stroke-miterlimit:10;stroke-width:13px;}</style></defs><title>footer-i-3</title><g id="Слой_2" data-name="Слой 2"><g id="Layer_1" data-name="Layer 1"><path class="cls-1" d="M441.54,687.29a66.83,66.83,0,0,1-24.48-4.9c-23.72-9.31-37.3-27.76-39.28-53.37-.66-8.51-.58-17.1-.51-25.41,0-3.74.07-7.6,0-11.39-3.14,2.94-6,5.62-8.79,8.4q-16.71,16.5-33.39,33.06-16.87,16.74-33.76,33.43c-20.06,19.81-43.93,25.16-69,15.49-24.93-9.61-38.76-29-40-56.13-.46-10.09-.35-20.28-.24-31.06,0-1.16,0-2.34,0-3.52L192,592c-8.29,8.21-16.68,16.6-24.8,24.71-17,17-34.59,34.56-52.25,51.51C98.21,684.31,75.3,690.59,53.65,685A62.21,62.21,0,0,1,9.71,642.78C2,618,8.25,595.35,28.39,575.48Q81.73,522.85,135,470.16l54.44-53.79q4.68-4.61,9.32-9.26c7.48-7.47,15.22-15.19,23.1-22.57C242,365.78,265.74,361.42,290.63,372c24.59,10.4,37.71,30.3,37.95,57.52.08,9.73.06,19.54,0,29.93v2.42l.47-.46c6.41-6.2,12.47-12.06,18.37-17.88q16.17-16,32.28-32,12.52-12.43,25.05-24.84c19.85-19.65,44-24.94,70-15.31,23.94,8.9,39.11,31.86,39.59,59.92.15,8.61.12,17.35.08,25.83l88.1-91-52,0c-49.88,0-101.45-.07-152.17.13H398c-29.45,0-50.13-12.67-61.46-37.66-11.4-25.15-6.76-49.49,13.42-70.39,21.16-21.91,43.15-43.69,64.41-64.75q8.16-8.09,16.32-16.19c21.3-21.16,43.05-42.57,64.08-63.29l19.31-19c1.22-1.2,2.49-2.26,3.71-3.28.53-.44,1.07-.89,1.61-1.36l5.44-4.69L527.94,92c7.94,16.5,14.34,18.71,22.71,16.95,6.72-1.42,12.45-8.23,12.78-15.19.38-7.87-2.4-14.13-17.18-19l-8.36-2.78L602.08,6.5H609l1.65,2.05c2.47,3.07,5.11,6.16,7.66,9.15C624,24.4,629.93,31.33,634.83,39c13.86,21.55,19.9,44.63,17.44,66.77s-13.35,43.46-31.54,61.87c-19.24,19.47-39,39-58.18,57.9l-13.81,13.62c-.24.25-.49.49-.74.72h.58q28.39,0,56.8,0c47.86,0,97.37,0,146.06.23A115.17,115.17,0,0,1,784,244.66,61.12,61.12,0,0,1,809.42,346C736.93,418.35,663,491.74,591.52,562.71q-42.91,42.6-85.82,85.22c-2.41,2.39-4.79,4.81-7.18,7.23-4.47,4.54-9.1,9.24-13.85,13.71C471.68,681.1,457.06,687.29,441.54,687.29ZM386.85,568.12l.75,11.69c.11,1.65.22,3.09.32,4.39.19,2.65.35,4.74.38,6.94.05,4.21,0,8.46,0,12.57-.07,8.08-.15,16.43.47,24.46,1.66,21.41,12.54,36.21,32.34,44,20.63,8.11,39.49,4.31,56.05-11.28,4.6-4.34,9.16-9,13.56-13.43,2.41-2.45,4.82-4.9,7.26-7.32l85.82-85.22c71.48-71,145.4-144.34,217.88-216.72a50.12,50.12,0,0,0-20.9-83,104.32,104.32,0,0,0-29.37-4.13c-48.66-.27-98.14-.25-146-.23q-28.39,0-56.81,0c-2.64,0-5.24-.16-7.76-.31l-3.4-.18-3.51-.17-4.09-10,3.25-2.57c.94-.73,1.9-1.45,2.86-2.16a46,46,0,0,0,5.09-4.13l13.81-13.63c19.12-18.87,38.89-38.38,58.08-57.8,33.35-33.75,38-75.65,12.68-115-4.5-7-9.92-13.35-15.65-20.08-1.6-1.86-3.22-3.77-4.83-5.7L557.68,67.47c9,4.41,17.44,12,16.74,26.82-.57,12-9.81,23-21.5,25.43-16.08,3.39-25.19-5.55-31.57-16.59l-18.87,18.6c-21,20.7-42.76,42.11-64.05,63.26q-8.16,8.1-16.33,16.19c-21.22,21-43.16,42.75-64.23,64.58C340.84,283.39,337,303,346.55,324S372.9,355.17,398,355.17h.37c50.74-.2,102.33-.16,152.22-.13l60.48,0h2.12l3.18-3.29,26.59,14.29H617.83L503.38,484.34V470.75q0-6.19,0-12.36c0-8.84.08-18-.08-26.92-.41-23.78-12.53-42.4-32.43-49.8-21.91-8.14-41.55-3.83-58.38,12.82q-12.54,12.39-25,24.82-16.14,16-32.3,32c-5.94,5.86-12,11.74-18.45,18l-9.81,9.49-9.33,9.06v-13c0-5.37,0-10.5,0-15.45,0-10.35,0-20.13,0-29.8-.2-22.83-10.71-38.8-31.24-47.49-20.88-8.84-40-5.31-56.93,10.49-7.75,7.25-15.42,14.91-22.84,22.32q-4.66,4.65-9.36,9.3L142.77,478Q89.45,530.66,36.11,583.31c-17.2,17-22.41,35.36-15.9,56.19,5.51,17.67,18.7,30.37,36.18,34.87,17.93,4.61,37-.65,50.94-14.07,17.58-16.88,35.13-34.41,52.1-51.37,8.12-8.11,16.52-16.51,24.83-24.73,1.64-1.63,3.37-3.18,5.56-5.14,1.19-1.07,2.56-2.29,4.18-3.77l9.2-8.38v12.45c0,5.66,0,11-.11,16.17-.11,10.62-.22,20.65.23,30.43,1,22.74,12.14,38.34,33,46.37,21.06,8.12,40.35,3.73,57.34-13q16.89-16.69,33.74-33.42,16.69-16.54,33.42-33.08c3.57-3.54,7.31-7,11.26-10.73,2-1.85,4.06-3.8,6.28-5.89Z"/></g></g></svg>