<svg xmlns="http://www.w3.org/2000/svg" viewBox="0 0 655.35 813.45"><title>footer-i-2</title><g id="Слой_2" data-name="Слой 2"><g id="Layer_1" data-name="Layer 1"><path d="M1.47,288.48c0-52.94.13-105.87-.16-158.81,0-6.88,2.12-9.94,8.57-12.34,103.49-38.59,206.86-77.52,310.39-116a25.2,25.2,0,0,1,16.21.06C439.71,39.76,542.78,78.6,646,117.07c6.58,2.46,9.4,5.22,9.37,12.72-.29,93.12.06,186.24-.32,279.35-.23,57.49-8.21,113.66-31.39,167C595.33,641.17,548.08,689.6,490.18,728.7,440.9,762,387.74,788.08,333.56,812.19c-2.59,1.16-6.45,1.79-8.85.71C253.14,780.65,182.63,746.5,122.27,695,50.94,634.17,12.11,556.12,5.15,463.39.79,405.3,1.54,346.82,0,288.52ZM613.56,299.8H614c0-47.52-.14-95,.16-142.55,0-6.56-2.1-9.26-8.16-11.52C516.18,112.28,426.54,78.44,336.71,45.11a26.82,26.82,0,0,0-17.14.12c-88.95,33-177.7,66.48-266.62,99.52-7.69,2.85-10.6,6.19-10.53,14.79.45,59,0,118,.33,177C43,376.69,42.41,417,45.24,457c6.14,86.62,42.38,158.41,110.7,213.21,51.14,41,109.07,70.34,168.15,97.64,2.62,1.2,7,.82,9.63-.56,39.79-20.76,80.12-40.61,118.89-63.15a348.26,348.26,0,0,0,95.18-80.56c45.65-55.79,63.43-121.3,65.52-191.73C614.62,387.85,613.56,343.81,613.56,299.8Z"/><path d="M516.65,248.64l28.47,28.46L267.52,554.7C216.42,503.57,164.24,451.38,112,399.11L139.37,373,265.78,499.54Z"/></g></g></svg>