<svg xmlns="http://www.w3.org/2000/svg" viewBox="0 0 512 512"><title>footer-i-4</title><g id="Слой_2" data-name="Слой 2"><g id="Слой_1-2" data-name="Слой 1"><path d="M501,512H11A18.44,18.44,0,0,1,0,501V196c3.29-3.63,6.14-7.83,9.94-10.79Q46.8,156.54,84,128.39a8.2,8.2,0,0,0,3.69-7.48c-.21-10.82-.12-21.64-.06-32.46.06-11.64,5.09-16.65,16.8-16.69,16.32-.05,32.64.1,49-.13A14,14,0,0,0,161.06,69c9.27-6.78,18.24-14,27.39-20.9Q220.19,24,252,0h8c2.7,1.85,5.49,3.59,8.09,5.58C295.57,26.64,323,47.79,350.54,68.73a15.44,15.44,0,0,0,8.53,2.89c16.31.27,32.63.08,48.95.15,11.07,0,16.22,5.18,16.3,16.18s.15,22-.05,33a8.19,8.19,0,0,0,3.69,7.47q37.17,28.26,74.1,56.82c3.8,3,6.65,7.16,9.94,10.79V501A18.54,18.54,0,0,1,501,512ZM116.2,100.15c-.08,1.42-.19,2.39-.19,3.36,0,51-.05,102,.15,153,0,2.12,1.82,4.88,3.62,6.26q66.06,51,132.26,101.8c3.11,2.4,5,2.27,8-.05q66.09-51,132.39-101.64a8.28,8.28,0,0,0,3.68-7.44q-.17-75-.07-150v-5.28Zm92.12,266.58L56.6,483.18h399L303.86,366.72c-12.48,9.6-24.48,18.85-36.49,28.08-8.63,6.62-13.87,6.63-22.37.1Zm275-137.91-156.29,120c52.21,40.07,103.88,79.73,156.29,119.94ZM185,348.78,28.76,228.91V468.65ZM306.69,71.61a22.41,22.41,0,0,0-1.92-2c-15.31-11.77-30.67-23.48-45.91-35.34-2.39-1.86-3.92-1.36-6,.29-15,11.62-30.1,23.14-45.14,34.71a18.53,18.53,0,0,0-2.08,2.39ZM424.68,238l49.67-38.18-49.67-38.18ZM87.44,161.56,37.63,199.74,87.44,238Z"/><path d="M255.5,171.12q-41,0-82,0c-5.9,0-10.35-2.42-13.07-7.58a13.46,13.46,0,0,1,.66-14.25c2.84-4.4,7-6.42,12.26-6.42,8.66,0,17.32,0,26,0q69,0,137.94,0c9.78,0,15.86,5.49,15.89,14.05,0,8.28-5.91,14.12-14.74,14.16-21.16.07-42.31,0-63.47,0Z"/><path d="M256,238c-27.32,0-54.64,0-82,0-9,0-15.23-6-15.17-14.33a13.61,13.61,0,0,1,12.48-13.78,58.31,58.31,0,0,1,6.48-.26H334.28c2,0,4,0,6,.2,7.87.76,13.08,6.58,12.94,14.38a14,14,0,0,1-13.73,13.74c-8.16.24-16.33.07-24.49.07Z"/><path d="M256.06,304.74c-14.32,0-28.63.12-42.94,0-9.42-.1-15.55-6.18-15.31-14.72a13.57,13.57,0,0,1,10.83-13.19,24.81,24.81,0,0,1,5.43-.59q42-.06,83.89,0c9.05,0,15,4.44,16.14,11.75,1.48,9.31-4.94,16.63-15.1,16.75C284.69,304.87,270.37,304.74,256.06,304.74Z"/></g></g></svg>