<svg xmlns="http://www.w3.org/2000/svg" viewBox="0 0 322.07 430.3"><title>footer-i-1</title><g id="Слой_2" data-name="Слой 2"><g id="Layer_1" data-name="Layer 1"><path d="M281.93,220.81h-14.5v-4.93q0-91.24,0-182.49c0-13.08-5.36-18.58-18.46-18.59q-75.24-.08-150.49-.06H93.34V93.08H44.63V78.87H78.06V14.68c-1.67,1.26-3,2.12-4.13,3.13C55.43,33.87,37,50,18.42,66a9.12,9.12,0,0,0-3.51,7.68Q15,204.38,15,335.13C15,347,20.86,353,32.78,353.07c28.67.11,57.33.06,86,.07h6.15v14.75H96.68c-20.51,0-41-.52-61.5.14S-.12,351,0,332.82C.59,244,.23,155.16.37,66.33a10,10,0,0,1,3-6.68q32.66-28.72,65.69-57A11,11,0,0,1,75.72.13q87-.21,174-.07c17.8,0,32.37,14.06,32.4,31.25q.19,93.24.05,186.49C282.16,218.62,282,219.44,281.93,220.81Z"/><path d="M186.61,400.05l18.1-35.86c-8.35-5.64-16.9-10.24-24.05-16.46-20.62-18-28.43-46.6-19.27-71.3,10.27-27.7,30.16-44.62,59.94-47.25,51.42-4.54,89.13,49.65,67.76,96.41a9.6,9.6,0,0,0,.11,7.24c10.21,20.94,20.67,41.75,31.15,62.56,1.87,3.71,2.85,7.21-.45,10.52-3.12,3.12-6.56,2.3-10.14.67-8.31-3.78-16.69-7.42-25.61-11.37-2.09,8.27-4.07,16.12-6,24-.4,1.62-.3,3.6-1.23,4.79-1.79,2.29-3.82,5-6.35,6-3.22,1.25-6-.86-7.66-4l-15.49-30.77c-4.34-8.62-8.78-17.19-12.94-25.9-1.2-2.51-2.74-2.9-5.32-3.29-6.89-1-10.19,1.94-13.05,8-7.92,16.86-16.61,33.36-24.9,50.05-1.83,3.67-3.9,6.63-8.6,6.15s-6-4-7-7.92c-2.14-8.84-4.32-17.67-6.61-27-8.82,3.88-17,7.42-25.2,11.14-3.7,1.68-7.28,2.92-10.57-.45s-2.19-7.22-.26-11c7.24-14.22,14.38-28.48,21.77-43.16l13.15,6.45-13.55,27.19c6.09-2.66,10.73-4.73,15.41-6.71,6.37-2.68,11,0,12.32,6.89.94,4.8,2.19,9.54,3.31,14.3Zm93.91-102.59c0-30.81-23.41-54.31-54-54.16-30.82.15-54.05,23.39-54.15,54.18s23.34,54,54.19,54S280.5,328.49,280.52,297.46Zm16.82,87.43.82-.87c-6.77-13.5-13.54-27-19.92-39.72l-29.92,19.81,18.28,36.3c.77-.87,1.1-1.08,1.17-1.36,1.19-4.5,2.37-9,3.49-13.52,2-8.08,5.89-9.88,13.56-6.31C289,381.16,293.17,383,297.34,384.89Z"/><path d="M141.17,164.92H76.67c-1.16,0-2.33,0-3.5,0-5.07-.31-8.12-3.29-7.93-7.72.18-4.26,3.09-6.94,8.06-7,13.33-.09,26.67,0,40,0q47.25,0,94.49.08a13.65,13.65,0,0,1,5.78,1c3.28,1.58,4.23,4.68,3.41,8.05-1,4.23-4.25,5.65-8.31,5.65q-26,0-52,0Z"/><path d="M141.17,203.89H75.67c-1,0-2,.05-3,0-4.69-.4-7.6-3.44-7.42-7.7.18-4.1,3-6.89,7.56-6.93,13.66-.12,27.33-.07,41-.07q47,0,94,.07a13.81,13.81,0,0,1,5.78,1c3.28,1.58,4.22,4.69,3.4,8.06-1,4.23-4.24,5.64-8.31,5.63l-51,0h-16.5Z"/><path d="M113.2,242.9c-13.16,0-26.32.23-39.46-.2-2.67-.08-5.91-2.1-7.64-4.24-1.1-1.36-.7-5.18.5-6.8a9.44,9.44,0,0,1,6.63-3.32c26.64-.22,53.28-.17,79.92-.11,4.68,0,7.83,3.1,7.83,7.24,0,4.3-3.25,7.36-8.32,7.39C139.51,243,126.35,242.9,113.2,242.9Z"/><path d="M103.64,267.21c9.81,0,19.63,0,29.44,0,5.23,0,8.21,2.75,8.22,7.25s-3,7.39-8.18,7.41q-29.94.11-59.88,0c-5.11,0-8.11-3.11-8-7.59.11-4.28,3-7,7.94-7.05C83.34,267.15,93.49,267.21,103.64,267.21Z"/><path d="M192.34,297.22c0-17.58,16.49-34,34.08-33.92,18,0,34.39,16.37,34.39,34.21S244,331.92,226.38,331.77C208.47,331.61,192.3,315.2,192.34,297.22Zm14.74.6c.07,11.33,7.83,19.1,19.16,19.16,11.92.07,19.72-7.65,19.78-19.59.06-11.5-7.87-19.38-19.46-19.35C214.58,278.08,207,285.78,207.08,297.82Z"/></g></g></svg>